<svg width="412" height="463" viewBox="0 0 412 463" fill="none" xmlns="http://www.w3.org/2000/svg">
<path d="M395.576 462.099H55.119C50.7675 462.093 46.596 460.359 43.519 457.279C40.442 454.199 38.7106 450.023 38.7042 445.667V155.582L1.64392 168.868C1.39484 168.959 1.12259 168.966 0.869195 168.887C0.615798 168.809 0.395327 168.649 0.241765 168.432C0.0848422 168.223 0 167.968 0 167.706C0 167.444 0.0848422 167.189 0.241765 166.98L38.6558 119.863V16.4076C38.6622 12.0538 40.3945 7.88053 43.4722 4.8042C46.5499 1.72787 50.7214 -4.72169e-06 55.0706 0H395.576C399.925 -4.72169e-06 404.096 1.72787 407.174 4.8042C410.252 7.88053 411.984 12.0538 411.99 16.4076V445.667C411.984 450.023 410.252 454.199 407.175 457.279C404.098 460.359 399.927 462.093 395.576 462.099ZM39.9129 152.678C40.163 152.679 40.4072 152.755 40.614 152.896C40.7734 153.007 40.9031 153.155 40.9916 153.328C41.0801 153.501 41.1248 153.693 41.1217 153.888V445.667C41.1281 449.381 42.6048 452.942 45.2285 455.568C47.8521 458.194 51.4086 459.673 55.119 459.679H395.576C399.286 459.673 402.842 458.194 405.466 455.568C408.09 452.942 409.566 449.381 409.573 445.667V16.4076C409.566 12.6956 408.089 9.13789 405.465 6.5154C402.84 3.89291 399.284 2.41999 395.576 2.42H55.119C51.4109 2.41999 47.8542 3.89291 45.2299 6.5154C42.6056 9.13789 41.1281 12.6956 41.1217 16.4076V120.201C41.1182 120.474 41.0248 120.738 40.8558 120.952L4.90752 165.044L39.5019 152.75C39.6338 152.703 39.7728 152.678 39.9129 152.678Z" fill="#3C4242"/>
</svg>
