<svg width="19" height="19" viewBox="0 0 19 19" fill="none" xmlns="http://www.w3.org/2000/svg">
<path d="M1.94438 18.7566C1.78744 18.7632 1.63089 18.7364 1.48505 18.678C1.33921 18.6196 1.20738 18.5309 1.09824 18.4178C0.984948 18.3053 0.895047 18.1715 0.833681 18.024C0.772314 17.8766 0.740723 17.7184 0.740723 17.5587C0.740723 17.399 0.772314 17.2408 0.833681 17.0934C0.895047 16.9459 0.984948 16.8121 1.09824 16.6996L16.6186 1.26001C16.8446 1.03831 17.1483 0.914124 17.4647 0.914124C17.7811 0.914124 18.0849 1.03831 18.3108 1.26001C18.4241 1.3725 18.514 1.50633 18.5754 1.65378C18.6368 1.80122 18.6684 1.95938 18.6684 2.11911C18.6684 2.27885 18.6368 2.437 18.5754 2.58445C18.514 2.7319 18.4241 2.86572 18.3108 2.97821L2.79052 18.5146C2.67335 18.6105 2.53784 18.6813 2.39235 18.723C2.24686 18.7646 2.09445 18.776 1.94438 18.7566Z" fill="#D1D3D4"/>
<path d="M17.4647 18.7566C17.3078 18.7632 17.1512 18.7364 17.0054 18.678C16.8595 18.6196 16.7278 18.5309 16.6186 18.4178L1.09824 2.88141C0.984948 2.76892 0.895047 2.6351 0.833681 2.48765C0.772314 2.3402 0.740723 2.18204 0.740723 2.02231C0.740723 1.86257 0.772314 1.70442 0.833681 1.55697C0.895047 1.40952 0.984948 1.2757 1.09824 1.16321C1.32419 0.941506 1.62799 0.817322 1.94438 0.817322C2.26078 0.817322 2.56457 0.941506 2.79052 1.16321L18.3108 16.6996C18.4241 16.8121 18.514 16.9459 18.5754 17.0934C18.6368 17.2408 18.6684 17.399 18.6684 17.5587C18.6684 17.7184 18.6368 17.8766 18.5754 18.024C18.514 18.1715 18.4241 18.3053 18.3108 18.4178C18.2017 18.5309 18.0699 18.6196 17.924 18.678C17.7782 18.7364 17.6216 18.7632 17.4647 18.7566Z" fill="#D1D3D4"/>
</svg>
