<svg width="201" height="126" viewBox="0 0 201 126" fill="none" xmlns="http://www.w3.org/2000/svg">
<path d="M27.98 27.928C27.7298 27.9268 27.4858 27.851 27.2789 27.7102L0.686423 9.3182C0.427597 9.12897 0.252547 8.84629 0.198393 8.53006C0.144239 8.21383 0.215248 7.88893 0.396335 7.6242C0.485701 7.49414 0.600083 7.38324 0.732828 7.29802C0.865573 7.21279 1.014 7.15496 1.16936 7.12791C1.32473 7.10087 1.48393 7.10515 1.63762 7.14051C1.79131 7.17586 1.93639 7.24157 2.06438 7.3338L28.6569 25.7258C28.7887 25.8134 28.9017 25.9265 28.9892 26.0585C29.0766 26.1905 29.1368 26.3387 29.166 26.4943C29.1953 26.6499 29.1932 26.8099 29.1597 26.9647C29.1262 27.1195 29.0621 27.266 28.9712 27.3956C28.8614 27.5581 28.7139 27.6915 28.5412 27.7843C28.3686 27.877 28.1759 27.9263 27.98 27.928Z" fill="#D1D3D4"/>
<path d="M1.43583 119.428C1.2413 119.433 1.04855 119.39 0.875348 119.301C0.702144 119.212 0.554034 119.081 0.444642 118.92C0.263556 118.655 0.192583 118.33 0.246737 118.014C0.300892 117.698 0.475941 117.415 0.734767 117.226L27.3273 98.834C27.4586 98.7423 27.6069 98.6777 27.7634 98.6439C27.92 98.6101 28.0817 98.6077 28.2391 98.637C28.3966 98.6663 28.5466 98.7266 28.6806 98.8144C28.8146 98.9022 28.9298 99.0158 29.0195 99.1486C29.1105 99.2782 29.1746 99.4247 29.208 99.5795C29.2415 99.7343 29.2436 99.8942 29.2144 100.05C29.1851 100.206 29.1249 100.354 29.0375 100.486C28.95 100.618 28.8371 100.731 28.7052 100.818L2.11272 119.21C1.91618 119.354 1.67893 119.43 1.43583 119.428Z" fill="#D1D3D4"/>
<path d="M25.1998 64.47H1.48414C1.16356 64.47 0.856091 64.3425 0.629406 64.1156C0.402721 63.8887 0.275391 63.5809 0.275391 63.26C0.275391 62.9391 0.402721 62.6313 0.629406 62.4044C0.856091 62.1775 1.16356 62.05 1.48414 62.05H25.1998C25.5204 62.05 25.8278 62.1775 26.0545 62.4044C26.2812 62.6313 26.4086 62.9391 26.4086 63.26C26.4086 63.5809 26.2812 63.8887 26.0545 64.1156C25.8278 64.3425 25.5204 64.47 25.1998 64.47Z" fill="#D1D3D4"/>
<path d="M172.957 27.928C172.762 27.9263 172.569 27.877 172.396 27.7843C172.224 27.6915 172.076 27.5581 171.966 27.3956C171.875 27.266 171.811 27.1195 171.778 26.9647C171.744 26.8099 171.742 26.6499 171.771 26.4943C171.801 26.3387 171.861 26.1905 171.948 26.0585C172.036 25.9265 172.149 25.8134 172.281 25.7258L198.873 7.3338C199.001 7.24157 199.146 7.17586 199.3 7.14051C199.454 7.10515 199.613 7.10087 199.768 7.12791C199.923 7.15496 200.072 7.21279 200.205 7.29802C200.337 7.38324 200.452 7.49414 200.541 7.6242C200.634 7.75426 200.7 7.9014 200.736 8.05716C200.771 8.21293 200.776 8.37422 200.749 8.53172C200.722 8.68922 200.664 8.83981 200.578 8.9748C200.493 9.10979 200.382 9.2265 200.251 9.3182L173.659 27.7102C173.452 27.851 173.208 27.9268 172.957 27.928Z" fill="#D1D3D4"/>
<path d="M199.502 119.428C199.259 119.427 199.023 119.351 198.825 119.21L172.232 100.818C172.1 100.731 171.987 100.618 171.9 100.486C171.813 100.354 171.752 100.206 171.723 100.05C171.694 99.8942 171.696 99.7343 171.729 99.5795C171.763 99.4247 171.827 99.2782 171.918 99.1486C172.008 99.0158 172.123 98.9022 172.257 98.8144C172.391 98.7266 172.541 98.6663 172.698 98.637C172.856 98.6077 173.017 98.6101 173.174 98.6439C173.331 98.6777 173.479 98.7423 173.61 98.834L200.203 117.226C200.333 117.318 200.445 117.434 200.53 117.569C200.616 117.704 200.673 117.855 200.7 118.012C200.727 118.17 200.723 118.331 200.687 118.487C200.652 118.643 200.586 118.79 200.493 118.92C200.383 119.081 200.235 119.212 200.062 119.301C199.889 119.39 199.696 119.433 199.502 119.428Z" fill="#D1D3D4"/>
<path d="M199.502 64.47H175.786C175.465 64.47 175.158 64.3425 174.931 64.1156C174.704 63.8887 174.577 63.5809 174.577 63.26C174.577 62.9391 174.704 62.6313 174.931 62.4044C175.158 62.1775 175.465 62.05 175.786 62.05H199.502C199.822 62.05 200.13 62.1775 200.356 62.4044C200.583 62.6313 200.71 62.9391 200.71 63.26C200.71 63.5809 200.583 63.8887 200.356 64.1156C200.13 64.3425 199.822 64.47 199.502 64.47Z" fill="#D1D3D4"/>
<path d="M143.247 47.4574C142.818 48.15 142.333 48.8057 141.796 49.4176L90.2551 100.939C89.9905 101.339 89.6312 101.666 89.2094 101.893C88.7876 102.12 88.3163 102.238 87.8376 102.238C87.3589 102.238 86.8876 102.12 86.4658 101.893C86.044 101.666 85.6847 101.339 85.4201 100.939C75.7501 90.969 66.0801 80.9825 56.4101 70.9798C56.0452 70.7056 55.752 70.347 55.5555 69.9348C55.359 69.5225 55.265 69.0688 55.2817 68.6123C55.2983 68.1559 55.425 67.7102 55.651 67.3134C55.8769 66.9165 56.1954 66.5803 56.5793 66.3334L63.8318 59.7752C64.0922 59.4475 64.4231 59.1829 64.7998 59.001C65.1765 58.8191 65.5893 58.7247 66.0076 58.7247C66.4258 58.7247 66.8387 58.8191 67.2154 59.001C67.5921 59.1829 67.923 59.4475 68.1833 59.7752L85.3234 77.2476C87.1123 79.0626 88.442 79.0868 90.1584 77.2476L130.192 37.3418C130.453 36.9372 130.811 36.6045 131.233 36.3741C131.655 36.1438 132.129 36.023 132.61 36.023C133.091 36.023 133.564 36.1438 133.986 36.3741C134.409 36.6045 134.766 36.9372 135.027 37.3418C137.3 39.6166 139.572 41.8914 141.796 44.1904C142.31 44.7926 142.778 45.4315 143.198 46.1022L143.247 47.4574Z" fill="#8A33FD"/>
<path d="M99.2478 125.962C86.8593 125.962 74.749 122.285 64.4483 115.395C54.1476 108.505 46.1192 98.7124 41.3784 87.2551C36.6375 75.7978 35.3971 63.1905 37.8139 51.0274C40.2308 38.8644 46.1965 27.6919 54.9565 18.9229C63.7165 10.1538 74.8774 4.18198 87.0278 1.7626C99.1783 -0.656774 111.773 0.584935 123.218 5.33072C134.664 10.0765 144.446 18.1132 151.329 28.4245C158.212 38.7359 161.885 50.8587 161.885 63.26C161.866 79.8838 155.261 95.8212 143.518 107.576C131.775 119.331 115.854 125.943 99.2478 125.962ZM99.2478 3.002C87.3364 3.002 75.6925 6.53811 65.7889 13.1631C55.8853 19.788 48.1667 29.2043 43.6095 40.2208C39.0524 51.2373 37.8612 63.3593 40.1868 75.0536C42.5123 86.7479 48.2501 97.4891 56.6745 105.919C65.0988 114.348 75.8312 120.088 87.5143 122.411C99.1974 124.734 111.306 123.537 122.31 118.971C133.313 114.404 142.716 106.674 149.331 96.7576C155.945 86.841 159.473 75.1837 159.468 63.26C159.442 47.2823 153.089 31.9666 141.8 20.6709C130.511 9.37519 115.209 3.0212 99.2478 3.002Z" fill="#D1D3D4"/>
</svg>
