<svg width="312" height="465" viewBox="0 0 312 465" fill="none" xmlns="http://www.w3.org/2000/svg">
<path d="M202.911 207.038L218.698 279.638L278.047 212.12L302.222 233.488C302.222 233.488 218.142 358.651 184.587 350.471C151.032 342.292 160.17 294.811 153.038 243.773C145.907 192.736 202.911 207.038 202.911 207.038Z" fill="white"/>
<path d="M187.826 352.068C186.638 352.07 185.453 351.932 184.297 351.657C158.744 345.413 157.172 317.777 155.287 282.784C154.585 270.272 153.836 257.35 151.975 243.943C149.968 229.592 152.748 218.896 160.267 212.144C174.989 198.931 202.186 205.562 203.322 205.852C203.539 205.913 203.736 206.03 203.893 206.192C204.05 206.353 204.161 206.553 204.217 206.772L219.495 276.952L277.249 211.224C277.466 210.981 277.77 210.833 278.096 210.813C278.412 210.797 278.723 210.9 278.966 211.103L303.141 232.496C303.361 232.688 303.503 232.955 303.539 233.246C303.574 233.536 303.502 233.829 303.334 234.069C299.805 239.127 223.533 352.044 187.826 352.068ZM186.424 206.409C178.132 206.409 168.414 207.957 161.765 213.959C155.117 219.961 152.361 230.125 154.247 243.604C156.133 257.083 156.858 270.079 157.583 282.639C159.517 316.64 161.064 343.477 184.853 349.31C198.076 352.504 222.324 333.507 254.96 294.279C277.491 267.199 296.928 238.958 300.53 233.779L278.12 213.886L219.592 280.509C219.446 280.679 219.256 280.806 219.042 280.874C218.829 280.943 218.601 280.95 218.383 280.896C218.164 280.84 217.965 280.724 217.807 280.562C217.649 280.4 217.539 280.197 217.489 279.977L201.872 208.151C196.796 207.04 191.619 206.456 186.424 206.409Z" fill="#3C4242"/>
<path d="M9.29356 421.329C4.45856 454.047 5.20798 463.05 5.20798 463.05L205.667 459.032L179.292 344.349L25.5875 360.829C18.0101 380.354 12.5476 400.637 9.29356 421.329Z" fill="#3C4242"/>
<path d="M5.20797 464.26C4.90572 464.267 4.61216 464.158 4.38743 463.955C4.16271 463.753 4.02382 463.472 3.99922 463.171C3.99922 462.783 3.22563 453.636 8.0848 421.159C11.3741 400.37 16.8688 379.992 24.4755 360.369C24.5595 360.167 24.6956 359.992 24.8697 359.86C25.0439 359.728 25.2499 359.645 25.4666 359.619L179.147 343.139C179.44 343.101 179.736 343.175 179.978 343.345C180.219 343.515 180.389 343.77 180.453 344.058L206.852 458.766C206.892 458.943 206.891 459.126 206.849 459.302C206.807 459.479 206.725 459.643 206.61 459.783C206.504 459.926 206.365 460.042 206.205 460.122C206.046 460.202 205.87 460.243 205.691 460.242L5.23215 464.26H5.20797ZM10.4781 421.522C6.58595 447.513 6.32003 458.548 6.36838 461.815L204.144 457.871L178.349 345.655L26.4578 361.942C19.074 381.191 13.7184 401.16 10.4781 421.522Z" fill="#3C4242"/>
<path d="M7.19066 409.059L195.151 387.884C177.649 276.056 168.728 335.177 189.881 230.584L212.17 224.534C201.824 170.496 176.391 146.78 176.391 146.78C151.564 102.034 91.0295 128.218 91.0295 128.218C91.0295 128.218 21.599 133.784 3.68528 193.849C-8.18464 233.585 12.1949 289.003 14.7333 337.379C15.4343 350.907 10.7686 350.35 7.19066 409.059Z" fill="#8A33FD"/>
<path d="M142.812 156.895C135.826 155.831 129.105 154.645 121.877 156.581C111.143 159.509 101.691 165.728 90.6428 168.318C78.8454 171.052 65.9842 171.149 53.9209 171.706C50.3914 171.875 54.211 176.352 51.165 174.537C40.4555 168.148 39.6093 153.604 38.6181 142.69C35.9868 117.473 36.8002 92.0141 41.0356 67.0166C45.097 45.2366 49.3035 24.594 70.4083 13.462C85.7836 5.355 107.396 0.514996 124.246 6.5166C141.096 12.5182 155.166 27.9336 161.04 44.9946C167.543 63.8706 169.671 83.0128 180.598 100.292C185.433 107.915 191.404 115.344 192.685 124.274C194.088 135.043 187.705 145.884 178.543 151.692C169.381 157.5 157.946 158.952 147.116 157.5C145.617 157.331 144.215 157.113 142.812 156.895Z" fill="white"/>
<path d="M52.1803 176.183C51.5909 176.12 51.0263 175.912 50.5364 175.578C39.7301 169.141 38.4489 155.274 37.5302 144.118V142.787C34.9677 114.158 35.7654 89.3048 39.9477 66.7746C43.8641 45.7448 47.9255 23.989 69.9489 12.373C83.8012 5.11302 106.477 -1.15478 124.754 5.35502C141.676 11.3808 156.012 26.409 162.273 44.5832C164.401 50.73 166.069 56.9736 167.688 63.0236C171.17 75.9222 174.433 88.0948 181.71 99.614C182.58 101.018 183.499 102.397 184.418 103.776C188.576 110.044 192.879 116.53 193.846 124.104C195.248 134.752 189.349 146.247 179.172 152.685C168.293 159.582 155.673 159.751 147.019 158.686L142.691 158.057L141.652 157.912C135.101 156.895 128.888 155.952 122.312 157.742C117.344 159.22 112.495 161.072 107.807 163.284C102.37 165.864 96.7048 167.93 90.8844 169.455C80.6033 171.492 70.1545 172.561 59.6745 172.65L53.9209 172.892C53.7699 172.856 53.6125 172.856 53.4615 172.892C53.4191 173.172 53.4191 173.458 53.4615 173.739C53.5824 174.104 53.5918 174.497 53.4885 174.868C53.3851 175.238 53.1737 175.57 52.8813 175.82C52.6849 176.002 52.4426 176.128 52.1803 176.183ZM107.614 5.08882C94.8373 5.37839 82.3016 8.62531 70.9884 14.5752C50.0045 25.6346 46.064 46.7854 42.2443 67.2586C38.0862 89.571 37.4093 114.207 39.8268 142.617L39.9477 143.948C40.8664 154.282 41.9784 167.084 51.0924 172.988C51.092 172.408 51.288 171.845 51.6484 171.391C51.9264 171.077 52.2694 170.828 52.6536 170.661C53.0377 170.494 53.4537 170.413 53.8725 170.423L59.6262 170.181C69.9457 170.155 80.2404 169.166 90.3768 167.229C96.0167 165.728 101.504 163.702 106.767 161.179C111.553 158.93 116.498 157.037 121.563 155.516C128.67 153.604 135.125 154.596 141.942 155.516L142.982 155.685C144.384 155.879 145.786 156.097 147.212 156.266C155.504 157.307 167.519 157.162 177.794 150.628C187.173 144.699 192.637 134.147 191.356 124.419C190.437 117.401 186.303 111.157 182.314 105.059C181.396 103.655 180.453 102.252 179.558 100.848C172.088 89.0144 168.631 76.0674 165.271 63.5802C163.651 57.5786 161.983 51.4802 159.904 45.285C153.86 27.7884 140.056 13.341 123.835 7.55721C118.606 5.8231 113.121 4.9885 107.614 5.08882Z" fill="#3C4242"/>
<path d="M150.959 56.3444C150.959 56.3444 163.433 85.3844 159.711 108.132C158.833 114.507 156.117 120.486 151.897 125.339C147.676 130.192 142.133 133.707 135.947 135.454L138.364 175.312C138.364 175.312 139.839 195.688 114.673 194.115C107.391 193.645 100.349 191.326 94.2111 187.375C88.0735 183.425 83.0431 177.974 79.5946 171.536L72.1245 98.4282C72.1245 98.4282 99.3697 80.3508 95.26 54.1906C95.4292 54.1906 130.072 68.3476 150.959 56.3444Z" fill="white"/>
<path d="M117.549 195.398H114.769C107.276 194.872 100.037 192.458 93.7263 188.379C87.4156 184.3 82.2383 178.689 78.6761 172.069C78.6548 171.932 78.6548 171.794 78.6761 171.657L71.206 98.5492C71.1925 98.3276 71.2366 98.1063 71.334 97.907C71.4315 97.7076 71.579 97.537 71.762 97.4118C72.0038 97.2424 98.3545 79.4553 94.3415 54.3841C94.3145 54.1721 94.343 53.9567 94.4242 53.759C94.5054 53.5613 94.6365 53.3881 94.8047 53.2564C94.9728 53.1247 95.1723 53.0389 95.3835 53.0075C95.5947 52.9761 95.8104 53.0002 96.0096 53.0773C96.348 53.0773 130.338 66.8471 150.476 55.2795C150.633 55.2136 150.801 55.1797 150.971 55.1797C151.142 55.1797 151.31 55.2136 151.467 55.2795C151.787 55.4033 152.047 55.6461 152.192 55.9571C152.7 57.1429 164.763 85.5053 161.016 108.423C160.105 114.842 157.406 120.876 153.229 125.832C149.052 130.787 143.565 134.466 137.397 136.446L139.815 175.336C139.914 177.947 139.497 180.553 138.588 183.003C137.68 185.453 136.298 187.699 134.52 189.614C130.58 193.437 124.899 195.398 117.549 195.398ZM80.9485 171.198C84.3344 177.39 89.2223 182.631 95.1621 186.437C101.102 190.243 107.903 192.493 114.939 192.978C122.892 193.486 128.863 191.768 132.707 187.92C135.797 184.519 137.452 180.052 137.325 175.457L134.907 135.599C134.894 135.313 134.98 135.03 135.152 134.8C135.324 134.571 135.571 134.408 135.85 134.341C141.818 132.689 147.166 129.308 151.222 124.624C155.278 119.94 157.861 114.16 158.647 108.011C161.838 88.4093 152.748 63.8464 150.476 58.111C131.885 67.791 104.543 58.8611 97.0007 56.1265C99.4182 79.4553 77.6607 96.2259 73.696 99.0815L80.9485 171.198Z" fill="#3C4242"/>
<path d="M137.494 110.334C135.459 110.319 133.429 110.133 131.426 109.778C131.27 109.746 131.122 109.684 130.991 109.595C130.859 109.506 130.746 109.392 130.659 109.26C130.571 109.127 130.511 108.978 130.481 108.822C130.45 108.666 130.451 108.506 130.483 108.35C130.512 108.193 130.572 108.043 130.66 107.91C130.748 107.776 130.862 107.662 130.995 107.574C131.128 107.486 131.278 107.425 131.435 107.397C131.592 107.368 131.754 107.371 131.909 107.406C131.909 107.406 139.96 108.955 143.755 106.68C144.335 103.534 136.72 93.0799 131.16 86.6185C130.948 86.3746 130.842 86.0566 130.865 85.7343C130.887 85.4121 131.037 85.1121 131.281 84.9003C131.524 84.6885 131.842 84.5822 132.164 84.6049C132.486 84.6276 132.786 84.7774 132.997 85.0213C135.415 87.7801 147.067 101.743 146.245 106.801C146.199 107.193 146.063 107.569 145.85 107.9C145.636 108.231 145.35 108.509 145.012 108.713C142.689 109.897 140.098 110.456 137.494 110.334Z" fill="#3C4242"/>
<path d="M128.694 123.354C127.227 123.356 125.763 123.227 124.319 122.967C117.467 121.75 111.281 118.108 106.889 112.706C106.743 112.423 106.715 112.095 106.81 111.791C106.905 111.488 107.116 111.234 107.396 111.085C107.679 110.936 108.009 110.904 108.316 110.994C108.623 111.084 108.882 111.29 109.04 111.569C113.109 116.334 118.707 119.534 124.875 120.62C133.046 121.951 141.169 118.95 149.05 111.69C149.163 111.569 149.3 111.472 149.452 111.406C149.604 111.34 149.768 111.306 149.934 111.306C150.099 111.307 150.263 111.341 150.415 111.407C150.567 111.474 150.704 111.57 150.817 111.692C150.93 111.813 151.017 111.956 151.072 112.113C151.127 112.269 151.15 112.435 151.138 112.601C151.127 112.766 151.081 112.928 151.005 113.075C150.928 113.222 150.822 113.352 150.694 113.456C143.538 120.039 136.189 123.354 128.694 123.354Z" fill="#3C4242"/>
<path d="M135.946 135.454C135.946 135.454 114.866 139.495 102.44 137.148C102.44 137.148 117.767 167.689 137.977 166.188L135.946 135.454Z" fill="#3C4242"/>
<path d="M136.599 167.495C116.607 167.495 102.029 138.939 101.401 137.681C101.306 137.479 101.267 137.256 101.288 137.035C101.309 136.813 101.39 136.602 101.522 136.422C101.653 136.239 101.835 136.097 102.045 136.016C102.256 135.934 102.485 135.915 102.706 135.962C114.794 138.237 135.56 134.317 135.777 134.268C135.947 134.236 136.121 134.241 136.288 134.283C136.455 134.324 136.611 134.402 136.744 134.51C136.878 134.615 136.988 134.747 137.067 134.897C137.146 135.047 137.193 135.212 137.204 135.382L139.234 166.14C139.248 166.299 139.229 166.459 139.181 166.611C139.132 166.763 139.053 166.903 138.95 167.025C138.847 167.146 138.72 167.246 138.578 167.318C138.436 167.391 138.281 167.434 138.122 167.447L136.599 167.495ZM104.737 138.697C108.508 145.304 121.103 165.075 136.624 165.075L134.762 136.882C130.338 137.681 115.495 140.004 104.737 138.697Z" fill="#3C4242"/>
<path d="M257.958 136.858L310.345 134.292L284.091 245.467L227.763 251.009L257.958 136.858Z" fill="#3C4242"/>
<path d="M227.812 252.219C227.638 252.222 227.465 252.187 227.306 252.116C227.148 252.045 227.007 251.94 226.893 251.808C226.764 251.656 226.673 251.477 226.626 251.283C226.58 251.09 226.58 250.888 226.627 250.695L256.822 136.567C256.885 136.317 257.027 136.095 257.228 135.933C257.429 135.772 257.676 135.68 257.934 135.672L310.297 133.083C310.485 133.067 310.674 133.099 310.847 133.175C311.021 133.251 311.172 133.369 311.288 133.518C311.41 133.663 311.496 133.836 311.539 134.021C311.581 134.206 311.578 134.399 311.53 134.583L285.3 245.758C285.24 246.003 285.106 246.223 284.915 246.388C284.724 246.553 284.487 246.654 284.236 246.677L227.812 252.219ZM258.949 138.044L229.407 249.63L283.172 244.354L308.846 135.575L258.949 138.044Z" fill="#3C4242"/>
<path d="M189.881 231.819C189.573 231.819 189.276 231.702 189.051 231.49C188.826 231.279 188.691 230.989 188.672 230.681C187.622 214.661 184.082 198.903 178.18 183.975C178.05 183.683 178.04 183.351 178.153 183.052C178.266 182.752 178.494 182.51 178.785 182.378C178.929 182.31 179.085 182.271 179.244 182.265C179.403 182.259 179.562 182.284 179.711 182.341C179.86 182.397 179.996 182.483 180.111 182.594C180.226 182.704 180.318 182.836 180.38 182.983C186.405 198.17 190.019 214.207 191.09 230.512C191.11 230.835 191.002 231.154 190.789 231.398C190.577 231.643 190.277 231.794 189.954 231.819H189.881Z" fill="#3C4242"/>
<path d="M107.686 84.7068C107.567 84.7303 107.443 84.7303 107.324 84.7068C107.02 84.6119 106.767 84.4012 106.617 84.1204C106.468 83.8396 106.435 83.5112 106.526 83.2064C107.51 80.086 109.681 77.4783 112.57 75.9464C114.023 75.3793 115.584 75.1437 117.14 75.2567C118.696 75.3697 120.207 75.8286 121.563 76.5998C121.828 76.7511 122.027 76.9975 122.118 77.2894C122.21 77.5813 122.188 77.8971 122.056 78.1732C121.924 78.4492 121.693 78.6651 121.408 78.7773C121.124 78.8894 120.808 78.8896 120.523 78.7778C119.474 78.1705 118.305 77.8016 117.097 77.697C115.89 77.5925 114.674 77.7549 113.537 78.1728C111.316 79.3776 109.638 81.3858 108.847 83.7872C108.782 84.0475 108.634 84.2791 108.424 84.4455C108.214 84.612 107.954 84.7039 107.686 84.7068Z" fill="#3C4242"/>
<path d="M141.168 77.5435H140.951C140.635 77.4791 140.357 77.2936 140.177 77.0268C139.996 76.76 139.927 76.433 139.984 76.1157C140.174 75.121 140.591 74.1839 141.204 73.3778C141.816 72.5716 142.607 71.9184 143.513 71.4693C145.641 70.6223 148.348 71.2999 151.225 73.4537C151.455 73.6506 151.603 73.9266 151.639 74.2272C151.675 74.5278 151.598 74.8311 151.422 75.0773C151.246 75.3234 150.984 75.4946 150.688 75.5569C150.392 75.6192 150.083 75.5682 149.823 75.4139C147.575 73.7925 145.713 73.2117 144.432 73.6957C143.901 73.9977 143.443 74.4117 143.088 74.909C142.733 75.4063 142.49 75.975 142.377 76.5755C142.316 76.8508 142.163 77.097 141.943 77.2731C141.724 77.4492 141.45 77.5446 141.168 77.5435Z" fill="#3C4242"/>
<path d="M37.2398 105.253C37.2398 105.253 40.1892 114.11 30.8335 139.762C21.4777 165.414 21.8645 185.064 45.3385 188.597C68.8124 192.131 82.5438 189.299 85.6382 169.237C88.7326 149.176 70.6739 127.154 70.6739 127.154" fill="white"/>
<path d="M59.9887 191.09C55.0232 191.028 50.0693 190.591 45.1694 189.783C36.5631 188.501 30.471 184.943 27.1107 179.28C22.1307 170.859 22.9768 157.791 29.6974 139.326C38.7147 114.618 36.128 105.712 36.1038 105.64C36.053 105.481 36.034 105.314 36.0478 105.147C36.0616 104.981 36.108 104.819 36.1843 104.671C36.2607 104.522 36.3654 104.391 36.4926 104.283C36.6199 104.175 36.767 104.093 36.9258 104.043C37.0845 103.992 37.2517 103.973 37.4178 103.987C37.5839 104 37.7456 104.047 37.8938 104.123C38.0419 104.2 38.1736 104.304 38.2813 104.432C38.3889 104.559 38.4705 104.707 38.5213 104.865C38.5213 105.253 41.4948 114.545 32.0908 140.173C25.636 157.912 24.8383 170.302 29.3106 178.046C32.3325 183.152 37.6752 186.202 45.6529 187.387C67.9665 190.751 81.5045 188.839 84.5747 169.116C87.5482 149.926 70.0697 128.122 69.8763 127.976C69.774 127.855 69.6971 127.714 69.6501 127.563C69.6031 127.411 69.587 127.252 69.6028 127.094C69.6186 126.936 69.6659 126.782 69.7419 126.643C69.818 126.504 69.9212 126.381 70.0455 126.282C70.293 126.082 70.6096 125.987 70.9264 126.019C71.2433 126.051 71.5349 126.206 71.7378 126.452C72.4872 127.371 90.1108 149.297 86.9438 169.576C84.2846 185.935 74.5179 191.09 59.9887 191.09Z" fill="#3C4242"/>
<path d="M289.845 251.009C309.185 223.542 309.185 223.542 308.097 214.08C307.251 206.82 303.624 200.455 299.829 194.454C294.994 186.807 284.429 175.094 280.489 190.703C278.531 198.205 275.509 207.425 277.588 215.121C279.522 222.235 284.84 228.068 287.766 234.747" fill="white"/>
<path d="M289.845 252.219C289.594 252.218 289.35 252.142 289.143 252.001C288.885 251.812 288.71 251.529 288.655 251.213C288.601 250.897 288.672 250.572 288.853 250.307C307.952 223.228 307.952 223.227 306.888 214.225C306.066 206.965 302.27 200.576 298.789 195.107C295.308 189.638 289.796 183.757 286.218 184.29C283.801 184.677 282.302 188.162 281.553 191.017L280.851 193.631C279.014 200.504 276.887 208.296 278.676 214.806C280.004 218.873 281.909 222.728 284.333 226.252C285.994 228.819 287.48 231.495 288.781 234.263C288.909 234.558 288.915 234.892 288.797 235.192C288.679 235.491 288.447 235.732 288.152 235.86C287.857 235.988 287.524 235.994 287.224 235.876C286.925 235.758 286.685 235.526 286.557 235.231C285.297 232.564 283.86 229.985 282.254 227.511C279.705 223.785 277.71 219.71 276.331 215.411C274.397 208.272 276.597 200.141 278.531 192.977L279.232 190.388C280.561 185.209 282.785 182.354 285.831 181.87C292.141 180.878 298.91 190.727 300.844 193.776C304.47 199.487 308.387 206.215 309.305 213.91C310.466 223.832 310.466 223.832 290.836 251.687C290.728 251.851 290.58 251.985 290.407 252.078C290.234 252.171 290.041 252.22 289.845 252.219Z" fill="#3C4242"/>
<path d="M52.3979 288.229C52.3979 288.229 139.186 368.524 163.99 359.353C188.793 350.181 217.682 311.896 234.702 285.204C251.721 258.511 273.768 221.63 277.008 205.199C280.247 188.767 275.171 176.497 269.03 179.571C262.89 182.644 239.899 205.174 239.899 205.174C239.899 205.174 247.659 183.152 244.033 183.056C240.407 182.959 229.722 192.736 226.168 224.196L152.434 299.216L91.9966 240.216" fill="white"/>
<path d="M159.59 361.24C129.927 361.24 54.9361 292.198 51.5758 289.1C51.4625 288.988 51.3726 288.854 51.3112 288.706C51.2499 288.559 51.2183 288.401 51.2183 288.241C51.2183 288.081 51.2499 287.923 51.3112 287.776C51.3726 287.628 51.4625 287.494 51.5758 287.382C51.8058 287.159 52.1136 287.034 52.434 287.034C52.7544 287.034 53.0622 287.159 53.2922 287.382C53.5098 287.6 75.2431 307.661 99.7082 326.32C131.813 350.81 153.909 361.869 163.651 358.264C191.767 347.882 224.427 299.264 233.759 284.599C251.237 257.18 272.729 221.098 275.896 205.029C278.313 193.292 276.089 183.588 272.68 180.999C272.271 180.64 271.76 180.418 271.219 180.361C270.678 180.305 270.133 180.418 269.658 180.684C263.736 183.636 241.035 205.9 240.794 206.118C240.603 206.311 240.352 206.431 240.082 206.457C239.813 206.484 239.543 206.415 239.319 206.263C239.086 206.123 238.909 205.907 238.817 205.652C238.724 205.396 238.722 205.117 238.811 204.86C241.785 196.414 244.396 186.444 243.791 184.362C241.374 184.871 231.003 192.711 227.425 224.268C227.382 224.537 227.265 224.789 227.086 224.994L153.353 300.014C153.242 300.127 153.111 300.216 152.965 300.278C152.82 300.339 152.664 300.37 152.506 300.37C152.349 300.37 152.193 300.339 152.048 300.278C151.902 300.216 151.771 300.127 151.66 300.014L91.2228 241.015C90.992 240.79 90.8598 240.483 90.8552 240.161C90.8507 239.838 90.9742 239.527 91.1986 239.296C91.423 239.065 91.7299 238.933 92.0518 238.928C92.3737 238.924 92.6842 239.048 92.915 239.272L152.603 297.352L225.128 223.47C228.779 192.179 239.633 181.797 244.106 181.797C244.42 181.796 244.73 181.875 245.005 182.027C245.28 182.18 245.511 182.401 245.677 182.668C247.297 185.088 244.831 194.139 242.679 200.794C249.448 194.284 263.76 180.805 268.571 178.409C269.452 177.942 270.45 177.743 271.442 177.838C272.435 177.933 273.378 178.316 274.155 178.942C278.845 182.547 280.586 193.655 278.265 205.368C275.025 221.824 253.389 258.172 235.789 285.785C223.702 304.782 192.516 350.06 164.473 360.417C162.908 360.985 161.254 361.264 159.59 361.24Z" fill="#3C4242"/>
<path d="M112.714 101.018C109.503 101.035 106.353 100.138 103.633 98.4306C100.912 96.7232 98.7327 94.2761 97.3494 91.3752C95.9661 88.4742 95.4359 85.2392 95.8207 82.0478C96.2055 78.8565 97.4894 75.8406 99.5225 73.3525C101.556 70.8643 104.254 69.0066 107.302 67.9963C110.351 66.986 113.624 66.8647 116.738 67.6468C119.853 68.4289 122.681 70.0819 124.892 72.4128C127.104 74.7438 128.607 77.6564 129.226 80.8106C130.092 85.1818 129.202 89.7183 126.749 93.4373C124.296 97.1562 120.479 99.758 116.123 100.679C115 100.899 113.859 101.013 112.714 101.018ZM112.714 69.7754C111.748 69.7652 110.783 69.8626 109.838 70.0658C107.008 70.61 104.404 71.9856 102.359 74.0171C100.313 76.0485 98.9184 78.6439 98.3523 81.472C97.7862 84.3002 98.0743 87.2331 99.18 89.8967C100.286 92.5603 102.159 94.8339 104.561 96.4276C106.962 98.0212 109.784 98.8627 112.665 98.8447C115.546 98.8267 118.357 97.95 120.739 96.3265C123.121 94.7029 124.965 92.4062 126.038 89.7289C127.11 87.0517 127.362 84.1155 126.76 81.2946C126.079 78.0651 124.319 75.1643 121.77 73.0703C119.221 70.9763 116.036 69.8142 112.739 69.7754H112.714Z" fill="#3C4242"/>
<path d="M148.373 93.7092C145.35 93.6725 142.392 92.8259 139.807 91.2576C137.222 89.6892 135.103 87.4563 133.672 84.7909C132.241 82.1256 131.549 79.1251 131.668 76.1014C131.788 73.0778 132.714 70.1413 134.351 67.5974C136.203 64.8331 138.827 62.6761 141.896 61.3959C144.966 60.1156 148.343 59.7688 151.608 60.3987C154.873 61.0286 157.88 62.6073 160.254 64.9377C162.628 67.2681 164.264 70.2469 164.957 73.5022C165.822 77.8734 164.932 82.4099 162.48 86.1289C160.027 89.8478 156.209 92.4496 151.854 93.3704C150.707 93.5958 149.541 93.7093 148.373 93.7092ZM148.373 62.467C147.398 62.4678 146.427 62.565 145.472 62.7574C142.642 63.3016 140.038 64.6772 137.993 66.7087C135.947 68.7401 134.552 71.3354 133.986 74.1636C133.42 76.9918 133.708 79.9247 134.814 82.5883C135.92 85.2519 137.793 87.5255 140.194 89.1191C142.596 90.7128 145.418 91.5543 148.299 91.5363C151.18 91.5183 153.991 90.6416 156.373 89.0181C158.754 87.3945 160.599 85.0977 161.671 82.4205C162.744 79.7433 162.995 76.8071 162.394 73.9862C161.714 70.7607 159.957 67.8629 157.413 65.7694C154.869 63.6759 151.69 62.5112 148.397 62.467H148.373Z" fill="#3C4242"/>
<path d="M127.751 80.8347C127.53 80.8394 127.312 80.7807 127.123 80.6653C126.986 80.5856 126.867 80.4794 126.773 80.353C126.678 80.2265 126.609 80.0824 126.571 79.9291C126.533 79.7758 126.525 79.6164 126.55 79.4602C126.574 79.3041 126.629 79.1543 126.712 79.0197C127.051 78.476 127.496 78.0052 128.019 77.6349C128.542 77.2645 129.133 77.0019 129.758 76.8623C130.384 76.7227 131.03 76.7089 131.661 76.8217C132.292 76.9345 132.894 77.1716 133.432 77.5193C133.676 77.6866 133.851 77.9376 133.922 78.225C133.994 78.5123 133.958 78.8159 133.821 79.0783C133.684 79.3408 133.455 79.5438 133.179 79.6489C132.902 79.7541 132.597 79.7541 132.32 79.6489C129.903 78.4147 128.887 80.0603 128.791 80.2539C128.682 80.4323 128.529 80.5795 128.347 80.6813C128.165 80.7831 127.96 80.8359 127.751 80.8347Z" fill="#3C4242"/>
<path d="M96.8315 84.2228L67.7974 87.756Z" fill="white"/>
<path d="M67.7971 88.966C67.4765 88.9852 67.1615 88.8762 66.9212 88.6629C66.6809 88.4496 66.5351 88.1495 66.5158 87.8286C66.4966 87.5077 66.6055 87.1923 66.8186 86.9517C67.0317 86.7112 67.3315 86.5652 67.6521 86.546L96.6621 82.9886C96.8197 82.9684 96.9797 82.9802 97.1326 83.0232C97.2856 83.0661 97.4283 83.1395 97.5524 83.2388C97.6764 83.3382 97.7792 83.4615 97.8547 83.6014C97.9302 83.7414 97.9768 83.8951 97.9917 84.0534C98.0329 84.371 97.9466 84.692 97.7517 84.9461C97.5569 85.2001 97.2693 85.3664 96.9522 85.4086L67.9422 88.9418L67.7971 88.966Z" fill="#3C4242"/>
<path d="M69.9489 98.3071C69.9489 98.3071 60.0371 64.7901 73.3092 41.9695C84.3088 23.0451 113.246 9.95295 134.545 9.25115C129.419 5.00111 123.185 2.30763 116.58 1.48862C109.975 0.66961 103.273 1.75925 97.2667 4.62894C75.1707 14.3089 63.4217 25.2231 59.046 45.0671C52.8088 73.7683 69.9489 98.3071 69.9489 98.3071Z" fill="#3C4242"/>
<path d="M69.9486 99.4688C69.7555 99.466 69.5656 99.4187 69.3937 99.3306C69.2219 99.2424 69.0726 99.1158 68.9575 98.9606C68.7882 98.6944 51.5756 73.6474 57.8853 44.7768C62.0917 25.4168 73.0188 13.8492 96.807 3.46739C103.052 0.529846 110.001 -0.574681 116.847 0.282015C123.693 1.13871 130.157 3.9215 135.487 8.30739C135.656 8.47419 135.773 8.68619 135.824 8.91798C135.876 9.14977 135.859 9.39151 135.777 9.61419C135.698 9.83967 135.55 10.0351 135.356 10.1737C135.161 10.3123 134.928 10.3873 134.689 10.3886C114.189 11.1388 85.3964 23.6018 74.3485 42.5988C61.4874 64.6934 71.0123 97.6296 71.109 97.9684C71.1894 98.2423 71.1704 98.536 71.0554 98.7972C70.9403 99.0585 70.7367 99.2707 70.4805 99.3962C70.3094 99.4539 70.1289 99.4785 69.9486 99.4688ZM112.666 2.42679C107.529 2.46384 102.456 3.57669 97.7741 5.69378C74.7836 15.761 64.2675 26.8688 60.2303 45.3334C56.1931 63.798 62.3818 81.2704 66.9267 90.4906C64.7993 78.9956 62.7687 57.6996 72.2694 41.3646C83.1482 22.658 110.563 10.0498 131.305 8.23479C125.808 4.48947 119.315 2.48292 112.666 2.47518V2.42679Z" fill="#3C4242"/>
<path d="M85.7594 92.4024C85.7594 92.4024 71.6896 65.5888 58.9494 83.8356C46.2091 102.082 67.6282 119.99 79.8124 117.57" fill="white"/>
<path d="M77.4189 119.022C70.4323 119.022 62.1161 114.182 57.4504 106.922C54.9952 103.41 53.7209 99.2065 53.8122 94.9208C53.9035 90.635 55.3556 86.4896 57.958 83.0853C61.3184 78.2453 65.2105 75.8253 69.2961 76.1883C78.9661 76.7933 86.5087 91.1439 86.8472 91.7489C86.9916 92.0383 87.0168 92.3728 86.9174 92.6806C86.8179 92.9884 86.6017 93.2447 86.3153 93.3945C86.0328 93.5399 85.7045 93.568 85.4013 93.4729C85.0982 93.3778 84.8447 93.1671 84.6956 92.8863C84.6956 92.7411 77.4431 79.1165 69.1511 78.6083C65.9116 78.3905 62.793 80.3749 59.9404 84.4647C57.6368 87.4865 56.3491 91.1613 56.2623 94.9614C56.1754 98.7615 57.2938 102.491 59.4569 105.616C64.1468 112.876 73.1641 117.57 79.5705 116.312C79.8874 116.255 80.2141 116.324 80.4806 116.505C80.7472 116.686 80.9324 116.964 80.9968 117.28C81.0533 117.594 80.9834 117.918 80.8022 118.181C80.6211 118.444 80.3434 118.625 80.0298 118.684C79.1729 118.883 78.2983 118.996 77.4189 119.022Z" fill="#3C4242"/>
<path d="M86.0011 235.957C85.8337 235.955 85.6684 235.92 85.5148 235.853C85.3612 235.787 85.2224 235.69 85.1066 235.57C84.8165 235.231 55.1538 203.045 34.7984 195.252C34.6334 195.211 34.4791 195.135 34.3455 195.029C34.2119 194.923 34.1021 194.791 34.0233 194.64C33.9444 194.489 33.8983 194.323 33.888 194.153C33.8776 193.983 33.9033 193.812 33.9632 193.653C34.0231 193.494 34.116 193.349 34.2358 193.228C34.3556 193.107 34.4996 193.012 34.6583 192.951C34.817 192.889 34.9869 192.862 35.1568 192.871C35.3268 192.88 35.493 192.924 35.6445 193.002C56.5559 201.109 85.6626 232.569 86.8955 233.924C87.1185 234.154 87.2433 234.462 87.2433 234.783C87.2433 235.104 87.1185 235.412 86.8955 235.642C86.7753 235.752 86.6341 235.837 86.4804 235.891C86.3267 235.945 86.1636 235.967 86.0011 235.957Z" fill="#3C4242"/>
</svg>
